<svg xmlns="http://www.w3.org/2000/svg" width="1560" height="2680" viewBox="0 0 1560 2680">

<defs>
  <marker id="arrow" viewBox="0 0 10 10" refX="9" refY="5" markerWidth="7" markerHeight="7" orient="auto-start-reverse">
    <path d="M 0 0 L 10 5 L 0 10 z" fill="#8A95AC"/>
  </marker>
  <marker id="arrowG" viewBox="0 0 10 10" refX="9" refY="5" markerWidth="7" markerHeight="7" orient="auto-start-reverse">
    <path d="M 0 0 L 10 5 L 0 10 z" fill="#1FD0A3"/>
  </marker>
  <marker id="arrowR" viewBox="0 0 10 10" refX="9" refY="5" markerWidth="7" markerHeight="7" orient="auto-start-reverse">
    <path d="M 0 0 L 10 5 L 0 10 z" fill="#FF5E6C"/>
  </marker>
</defs>
<rect width="1560" height="2680" fill="#0B0E14"/>
<text x="780.0" y="46" font-size="26" fill="#EAF0FA" font-weight="800" text-anchor="middle" font-family="DM Sans, Segoe UI, sans-serif">GEMA — Flujograma general del sistema</text>
<text x="780.0" y="74" font-size="13" fill="#8A95AC" font-weight="600" text-anchor="middle" font-family="DM Sans, Segoe UI, sans-serif">Gemelo digital metabólico · MVP · prevención del síndrome metabólico (Lima, Perú)</text>
<rect x="40" y="100" width="380" height="2540" fill="#1FD0A3" fill-opacity="0.04" stroke="#3A4358" stroke-width="1"/>
<rect x="40" y="100" width="380" height="34" fill="#1FD0A3" fill-opacity="0.15" stroke="#3A4358"/>
<text x="230.0" y="122" font-size="13" fill="#1FD0A3" font-weight="800" text-anchor="middle" font-family="DM Sans, Segoe UI, sans-serif">USUARIO</text>
<rect x="420" y="100" width="560" height="2540" fill="#4DA3FF" fill-opacity="0.04" stroke="#3A4358" stroke-width="1"/>
<rect x="420" y="100" width="560" height="34" fill="#4DA3FF" fill-opacity="0.15" stroke="#3A4358"/>
<text x="700.0" y="122" font-size="13" fill="#4DA3FF" font-weight="800" text-anchor="middle" font-family="DM Sans, Segoe UI, sans-serif">APP GEMA (frontend)</text>
<rect x="980" y="100" width="540" height="2540" fill="#A78BFA" fill-opacity="0.04" stroke="#3A4358" stroke-width="1"/>
<rect x="980" y="100" width="540" height="34" fill="#A78BFA" fill-opacity="0.15" stroke="#3A4358"/>
<text x="1250.0" y="122" font-size="13" fill="#A78BFA" font-weight="800" text-anchor="middle" font-family="DM Sans, Segoe UI, sans-serif">MOTOR IA &amp; SERVICIOS</text>
<line x1="40" y1="120" x2="1520" y2="120" stroke="#3A4358" stroke-width="1" stroke-dasharray="6 5"/>
<text x="52" y="142" font-size="12" fill="#8A95AC" font-weight="800" font-family="DM Sans, sans-serif" letter-spacing="2">FASE 1 · ACCESO</text>
<line x1="40" y1="420" x2="1520" y2="420" stroke="#3A4358" stroke-width="1" stroke-dasharray="6 5"/>
<text x="52" y="442" font-size="12" fill="#8A95AC" font-weight="800" font-family="DM Sans, sans-serif" letter-spacing="2">FASE 2 · CREACIÓN DEL GEMELO</text>
<line x1="40" y1="940" x2="1520" y2="940" stroke="#3A4358" stroke-width="1" stroke-dasharray="6 5"/>
<text x="52" y="962" font-size="12" fill="#8A95AC" font-weight="800" font-family="DM Sans, sans-serif" letter-spacing="2">FASE 3 · PERFIL Y DISPOSITIVOS</text>
<line x1="40" y1="1430" x2="1520" y2="1430" stroke="#3A4358" stroke-width="1" stroke-dasharray="6 5"/>
<text x="52" y="1452" font-size="12" fill="#8A95AC" font-weight="800" font-family="DM Sans, sans-serif" letter-spacing="2">FASE 4 · USO DIARIO (LOOP)</text>
<line x1="40" y1="2110" x2="1520" y2="2110" stroke="#3A4358" stroke-width="1" stroke-dasharray="6 5"/>
<text x="52" y="2132" font-size="12" fill="#8A95AC" font-weight="800" font-family="DM Sans, sans-serif" letter-spacing="2">FASE 5 · INTELIGENCIA PREDICTIVA</text>
<line x1="40" y1="2440" x2="1520" y2="2440" stroke="#3A4358" stroke-width="1" stroke-dasharray="6 5"/>
<text x="52" y="2462" font-size="12" fill="#8A95AC" font-weight="800" font-family="DM Sans, sans-serif" letter-spacing="2">FASE 6 · CONEXIÓN MÉDICA</text>
<rect x="90.0" y="159.0" width="280" height="52" rx="26.0" fill="#1FD0A3" fill-opacity="0.13" stroke="#1FD0A3" stroke-width="2"/><text x="230" y="189" font-size="12.5" fill="#1FD0A3" font-weight="800" text-anchor="middle" font-family="DM Sans, Segoe UI, sans-serif">INICIO · abre GEMA</text>
<line x1="230" y1="211" x2="230" y2="248" stroke="#8A95AC" stroke-width="2" marker-end="url(#arrow)"/>
<polygon points="230,248.0 340.0,290 230,332.0 120.0,290" fill="#FFB23E" fill-opacity="0.10" stroke="#FFB23E" stroke-width="2"/><text x="230" y="286" font-size="11.5" fill="#EAF0FA" font-weight="600" text-anchor="middle" font-family="DM Sans, Segoe UI, sans-serif">¿Cómo inicia</text>
<text x="230" y="302" font-size="11.5" fill="#EAF0FA" font-weight="600" text-anchor="middle" font-family="DM Sans, Segoe UI, sans-serif">sesión?</text>
<polyline points="340,290 560,290 560,318" fill="none" stroke="#8A95AC" stroke-width="2" marker-end="url(#arrow)"/><text x="560" y="282" font-size="11.5" fill="#8A95AC" font-weight="800" text-anchor="middle" font-family="DM Sans, sans-serif">Google (simulado)</text>
<polyline points="230,332 230,360 560,360" fill="none" stroke="#8A95AC" stroke-width="2" marker-end="url(#arrow)"/><text x="380" y="352" font-size="11.5" fill="#8A95AC" font-weight="800" text-anchor="middle" font-family="DM Sans, sans-serif">Email</text>
<rect x="520.0" y="332.0" width="360" height="56" rx="10" fill="#161B27" stroke="#4DA3FF" stroke-width="2"/><text x="700" y="356" font-size="12.5" fill="#EAF0FA" font-weight="600" text-anchor="middle" font-family="DM Sans, Segoe UI, sans-serif">Carrusel educativo: problema (73 % no saludable)</text>
<text x="700" y="372" font-size="12.5" fill="#EAF0FA" font-weight="600" text-anchor="middle" font-family="DM Sans, Segoe UI, sans-serif">→ solución (gemelo) → evidencia (Twin Health 71 %)</text>
<polyline points="700,388 700,430 230,430 230,458" fill="none" stroke="#8A95AC" stroke-width="2" marker-end="url(#arrow)"/>
<polygon points="230,462.0 350.0,510 230,558.0 110.0,510" fill="#FFB23E" fill-opacity="0.10" stroke="#FFB23E" stroke-width="2"/><text x="230" y="506" font-size="11.5" fill="#EAF0FA" font-weight="600" text-anchor="middle" font-family="DM Sans, Segoe UI, sans-serif">¿Cómo crear</text>
<text x="230" y="522" font-size="11.5" fill="#EAF0FA" font-weight="600" text-anchor="middle" font-family="DM Sans, Segoe UI, sans-serif">el gemelo?</text>
<polyline points="350,510 575,510 575,540" fill="none" stroke="#8A95AC" stroke-width="2" marker-end="url(#arrow)"/><text x="575" y="502" font-size="11.5" fill="#8A95AC" font-weight="800" text-anchor="middle" font-family="DM Sans, sans-serif">Foto</text>
<rect x="450.0" y="540.0" width="250" height="60" rx="10" fill="#161B27" stroke="#4DA3FF" stroke-width="2"/><text x="575" y="566" font-size="12.5" fill="#EAF0FA" font-weight="600" text-anchor="middle" font-family="DM Sans, Segoe UI, sans-serif">Cámara frontal real</text>
<text x="575" y="582" font-size="12.5" fill="#EAF0FA" font-weight="600" text-anchor="middle" font-family="DM Sans, Segoe UI, sans-serif">(getUserMedia) + captura</text>
<polyline points="230,558 230,640 450,640" fill="none" stroke="#8A95AC" stroke-width="2" marker-end="url(#arrow)"/><text x="320" y="632" font-size="11.5" fill="#8A95AC" font-weight="800" text-anchor="middle" font-family="DM Sans, sans-serif">Galería</text>
<rect x="450.0" y="612.0" width="250" height="56" rx="10" fill="#161B27" stroke="#4DA3FF" stroke-width="2"/><text x="575" y="636" font-size="12.5" fill="#EAF0FA" font-weight="600" text-anchor="middle" font-family="DM Sans, Segoe UI, sans-serif">Galería simulada</text>
<text x="575" y="652" font-size="12.5" fill="#EAF0FA" font-weight="600" text-anchor="middle" font-family="DM Sans, Segoe UI, sans-serif">→ selecciona foto</text>
<polyline points="230,558 230,718 450,718" fill="none" stroke="#8A95AC" stroke-width="2" marker-end="url(#arrow)"/><text x="320" y="710" font-size="11.5" fill="#8A95AC" font-weight="800" text-anchor="middle" font-family="DM Sans, sans-serif">Sin foto</text>
<rect x="450.0" y="690.0" width="250" height="56" rx="10" fill="#161B27" stroke="#4DA3FF" stroke-width="2"/><text x="575" y="714" font-size="12.5" fill="#EAF0FA" font-weight="600" text-anchor="middle" font-family="DM Sans, Segoe UI, sans-serif">Editor manual: piel,</text>
<text x="575" y="730" font-size="12.5" fill="#EAF0FA" font-weight="600" text-anchor="middle" font-family="DM Sans, Segoe UI, sans-serif">peinado, accesorios</text>
<polyline points="700,570 840,570 840,600" fill="none" stroke="#8A95AC" stroke-width="2" marker-end="url(#arrow)"/>
<polyline points="700,640 840,640 840,612" fill="none" stroke="#8A95AC" stroke-width="2" marker-end="url(#arrow)"/>
<rect x="1060.0" y="580.0" width="380" height="64" rx="10" fill="#161B27" stroke="#4DA3FF" stroke-width="2"/><rect x="1065.0" y="585.0" width="370" height="54" rx="8" fill="none" stroke="#4DA3FF" stroke-opacity="0.4" stroke-width="1.4"/><text x="1250" y="608" font-size="12.5" fill="#EAF0FA" font-weight="600" text-anchor="middle" font-family="DM Sans, Segoe UI, sans-serif">GENERACIÓN DEL AVATAR (subproceso)</text>
<text x="1250" y="624" font-size="12.5" fill="#EAF0FA" font-weight="600" text-anchor="middle" font-family="DM Sans, Segoe UI, sans-serif">3 estados: saludable · regular · en riesgo</text>
<line x1="1250" y1="644" x2="1250" y2="680" stroke="#8A95AC" stroke-width="2" marker-end="url(#arrow)"/>
<polygon points="1088.0,684.0 1430.0,684.0 1412.0,740.0 1070.0,740.0" fill="#161B27" stroke="#1FD0A3" stroke-width="2"/><text x="1250" y="708" font-size="12.5" fill="#EAF0FA" font-weight="600" text-anchor="middle" font-family="DM Sans, Segoe UI, sans-serif">Assets del gemelo:</text>
<text x="1250" y="724" font-size="12.5" fill="#EAF0FA" font-weight="600" text-anchor="middle" font-family="DM Sans, Segoe UI, sans-serif">happy.png · neutral.png · tired.png</text>
<polyline points="575,746 575,880 700,880" fill="none" stroke="#8A95AC" stroke-width="2" marker-end="url(#arrow)" stroke-dasharray="5 4"/>
<polyline points="1250,740 1250,880 860,880" fill="none" stroke="#8A95AC" stroke-width="2" marker-end="url(#arrow)"/>
<rect x="550.0" y="853.0" width="300" height="54" rx="10" fill="#161B27" stroke="#4DA3FF" stroke-width="2"/><text x="700" y="876" font-size="12.5" fill="#EAF0FA" font-weight="600" text-anchor="middle" font-family="DM Sans, Segoe UI, sans-serif">Vista previa del gemelo</text>
<text x="700" y="892" font-size="12.5" fill="#EAF0FA" font-weight="600" text-anchor="middle" font-family="DM Sans, Segoe UI, sans-serif">(SVG si no hay foto · imagen si hay)</text>
<polyline points="700,907 700,960 230,960 230,986" fill="none" stroke="#8A95AC" stroke-width="2" marker-end="url(#arrow)"/>
<polygon points="78.0,988.0 400.0,988.0 382.0,1052.0 60.0,1052.0" fill="#161B27" stroke="#1FD0A3" stroke-width="2"/><text x="230" y="1009" font-size="12.5" fill="#EAF0FA" font-weight="600" text-anchor="middle" font-family="DM Sans, Segoe UI, sans-serif">Formulario de datos: edad, sexo, talla,</text>
<text x="230" y="1024" font-size="12.5" fill="#EAF0FA" font-weight="600" text-anchor="middle" font-family="DM Sans, Segoe UI, sans-serif">peso, cintura, ciudad, antecedentes</text>
<text x="230" y="1039" font-size="12.5" fill="#EAF0FA" font-weight="600" text-anchor="middle" font-family="DM Sans, Segoe UI, sans-serif">(con autorrelleno de demo)</text>
<line x1="230" y1="1052" x2="230" y2="1090" stroke="#8A95AC" stroke-width="2" marker-end="url(#arrow)"/>
<rect x="70.0" y="1094.0" width="320" height="56" rx="10" fill="#161B27" stroke="#4DA3FF" stroke-width="2"/><text x="230" y="1118" font-size="12.5" fill="#EAF0FA" font-weight="600" text-anchor="middle" font-family="DM Sans, Segoe UI, sans-serif">Empareja smartwatch (BLE sim):</text>
<text x="230" y="1134" font-size="12.5" fill="#EAF0FA" font-weight="600" text-anchor="middle" font-family="DM Sans, Segoe UI, sans-serif">buscar → detectar → nombrar</text>
<polyline points="390,1122 1060,1122" fill="none" stroke="#8A95AC" stroke-width="2" marker-end="url(#arrow)"/>
<rect x="1070.0" y="1094.0" width="360" height="56" rx="10" fill="#161B27" stroke="#4DA3FF" stroke-width="2"/><text x="1250" y="1118" font-size="12.5" fill="#EAF0FA" font-weight="600" text-anchor="middle" font-family="DM Sans, Segoe UI, sans-serif">Sincroniza señales del wearable:</text>
<text x="1250" y="1134" font-size="12.5" fill="#EAF0FA" font-weight="600" text-anchor="middle" font-family="DM Sans, Segoe UI, sans-serif">HRV · pasos · sueño · presión</text>
<line x1="1250" y1="1150" x2="1250" y2="1188" stroke="#8A95AC" stroke-width="2" marker-end="url(#arrow)"/>
<rect x="1060.0" y="1192.0" width="380" height="60" rx="10" fill="#161B27" stroke="#4DA3FF" stroke-width="2"/><text x="1250" y="1218" font-size="12.5" fill="#EAF0FA" font-weight="600" text-anchor="middle" font-family="DM Sans, Segoe UI, sans-serif">Calibra el ICM inicial: pesos base</text>
<text x="1250" y="1234" font-size="12.5" fill="#EAF0FA" font-weight="600" text-anchor="middle" font-family="DM Sans, Segoe UI, sans-serif">glucosa 35 · activ. 20 · sueño 20 · estrés 15 · nutric. 10</text>
<line x1="1250" y1="1252" x2="1250" y2="1290" stroke="#8A95AC" stroke-width="2" marker-end="url(#arrow)"/>
<path d="M 1085.0 1315.0 A 165.0 10 0 0 1 1415.0 1315.0 L 1415.0 1365.0 A 165.0 10 0 0 1 1085.0 1365.0 Z" fill="#161B27" stroke="#A78BFA" stroke-width="2"/><ellipse cx="1250" cy="1315.0" rx="165.0" ry="10" fill="#161B27" stroke="#A78BFA" stroke-width="2"/><text x="1250" y="1342" font-size="12.5" fill="#EAF0FA" font-weight="600" text-anchor="middle" font-family="DM Sans, Segoe UI, sans-serif">Perfil + gemelo del usuario</text>
<text x="1250" y="1358" font-size="12.5" fill="#EAF0FA" font-weight="600" text-anchor="middle" font-family="DM Sans, Segoe UI, sans-serif">(MVP: memoria · prod: PostgreSQL/Timescale)</text>
<polyline points="1085,1340 700,1340 700,1470" fill="none" stroke="#8A95AC" stroke-width="2" marker-end="url(#arrow)"/>
<rect x="535.0" y="1470.0" width="330" height="60" rx="10" fill="#161B27" stroke="#4DA3FF" stroke-width="2"/><text x="700" y="1496" font-size="12.5" fill="#EAF0FA" font-weight="600" text-anchor="middle" font-family="DM Sans, Segoe UI, sans-serif">HOME · panel del día: ICM, gemelo,</text>
<text x="700" y="1512" font-size="12.5" fill="#EAF0FA" font-weight="600" text-anchor="middle" font-family="DM Sans, Segoe UI, sans-serif">5 sub-índices, glucosa, comidas</text>
<polyline points="535,1500 230,1500 230,1530" fill="none" stroke="#8A95AC" stroke-width="2" marker-end="url(#arrow)"/>
<polygon points="83.0,1533.0 395.0,1533.0 377.0,1597.0 65.0,1597.0" fill="#161B27" stroke="#1FD0A3" stroke-width="2"/><text x="230" y="1562" font-size="12.5" fill="#EAF0FA" font-weight="600" text-anchor="middle" font-family="DM Sans, Segoe UI, sans-serif">Registra comida (desayuno / almuerzo /</text>
<text x="230" y="1576" font-size="12.5" fill="#EAF0FA" font-weight="600" text-anchor="middle" font-family="DM Sans, Segoe UI, sans-serif">cena / snack): foto real o galería</text>
<polyline points="395,1565 700,1565 700,1592" fill="none" stroke="#8A95AC" stroke-width="2" marker-end="url(#arrow)"/>
<rect x="540.0" y="1594.0" width="320" height="56" rx="10" fill="#161B27" stroke="#4DA3FF" stroke-width="2"/><text x="700" y="1618" font-size="12.5" fill="#EAF0FA" font-weight="600" text-anchor="middle" font-family="DM Sans, Segoe UI, sans-serif">POST /api/analyze-meal</text>
<text x="700" y="1634" font-size="12.5" fill="#EAF0FA" font-weight="600" text-anchor="middle" font-family="DM Sans, Segoe UI, sans-serif">(imagen base64 + tipo de comida)</text>
<polyline points="860,1622 1250,1622 1250,1652" fill="none" stroke="#8A95AC" stroke-width="2" marker-end="url(#arrow)"/>
<polygon points="1250,1656.0 1365.0,1702 1250,1748.0 1135.0,1702" fill="#FFB23E" fill-opacity="0.10" stroke="#FFB23E" stroke-width="2"/><text x="1250" y="1698" font-size="11.5" fill="#EAF0FA" font-weight="600" text-anchor="middle" font-family="DM Sans, Segoe UI, sans-serif">¿Gemini</text>
<text x="1250" y="1714" font-size="11.5" fill="#EAF0FA" font-weight="600" text-anchor="middle" font-family="DM Sans, Segoe UI, sans-serif">responde?</text>
<polyline points="1365,1702 1430,1702 1430,1780" fill="none" stroke="#1FD0A3" stroke-width="2" marker-end="url(#arrowG)"/><text x="1408" y="1696" font-size="11.5" fill="#1FD0A3" font-weight="800" text-anchor="middle" font-family="DM Sans, sans-serif">Sí</text>
<rect x="1355.0" y="1755.0" width="150" height="110" rx="10" fill="#161B27" stroke="#1FD0A3" stroke-width="2"/><text x="1430" y="1784" font-size="12.5" fill="#EAF0FA" font-weight="600" text-anchor="middle" font-family="DM Sans, Segoe UI, sans-serif">Gemini 2.0</text>
<text x="1430" y="1799" font-size="12.5" fill="#EAF0FA" font-weight="600" text-anchor="middle" font-family="DM Sans, Segoe UI, sans-serif">Flash analiza:</text>
<text x="1430" y="1814" font-size="12.5" fill="#EAF0FA" font-weight="600" text-anchor="middle" font-family="DM Sans, Segoe UI, sans-serif">plato, carbos,</text>
<text x="1430" y="1829" font-size="12.5" fill="#EAF0FA" font-weight="600" text-anchor="middle" font-family="DM Sans, Segoe UI, sans-serif">kcal, carga,</text>
<text x="1430" y="1844" font-size="12.5" fill="#EAF0FA" font-weight="600" text-anchor="middle" font-family="DM Sans, Segoe UI, sans-serif">pico previsto</text>
<polyline points="1135,1702 1075,1702 1075,1780" fill="none" stroke="#FF5E6C" stroke-width="2" marker-end="url(#arrowR)"/><text x="1080" y="1696" font-size="11.5" fill="#FF5E6C" font-weight="800" text-anchor="middle" font-family="DM Sans, sans-serif">No (sin créditos/red)</text>
<rect x="990.0" y="1755.0" width="170" height="110" rx="10" fill="#161B27" stroke="#FF5E6C" stroke-width="2"/><text x="1075" y="1784" font-size="12.5" fill="#EAF0FA" font-weight="600" text-anchor="middle" font-family="DM Sans, Segoe UI, sans-serif">Fallback local:</text>
<text x="1075" y="1799" font-size="12.5" fill="#EAF0FA" font-weight="600" text-anchor="middle" font-family="DM Sans, Segoe UI, sans-serif">estimación por</text>
<text x="1075" y="1814" font-size="12.5" fill="#EAF0FA" font-weight="600" text-anchor="middle" font-family="DM Sans, Segoe UI, sans-serif">tipo de comida</text>
<text x="1075" y="1829" font-size="12.5" fill="#EAF0FA" font-weight="600" text-anchor="middle" font-family="DM Sans, Segoe UI, sans-serif">(plato peruano</text>
<text x="1075" y="1844" font-size="12.5" fill="#EAF0FA" font-weight="600" text-anchor="middle" font-family="DM Sans, Segoe UI, sans-serif">de referencia)</text>
<polyline points="1430,1865 1430,1925 1290,1925" fill="none" stroke="#8A95AC" stroke-width="2" marker-end="url(#arrow)"/>
<polyline points="1075,1865 1075,1925 1210,1925" fill="none" stroke="#8A95AC" stroke-width="2" marker-end="url(#arrow)"/>
<rect x="1070.0" y="1925.0" width="360" height="60" rx="10" fill="#161B27" stroke="#4DA3FF" stroke-width="2"/><text x="1250" y="1952" font-size="12.5" fill="#EAF0FA" font-weight="600" text-anchor="middle" font-family="DM Sans, Segoe UI, sans-serif">Recalcula sub-índices (nutrición, glucosa)</text>
<text x="1250" y="1966" font-size="12.5" fill="#EAF0FA" font-weight="600" text-anchor="middle" font-family="DM Sans, Segoe UI, sans-serif">→ ICM en vivo + predicción de pico (~60 min)</text>
<polyline points="1070,1955 700,1955 700,1984" fill="none" stroke="#8A95AC" stroke-width="2" marker-end="url(#arrow)"/>
<polygon points="700,1988.0 825.0,2034 700,2080.0 575.0,2034" fill="#FFB23E" fill-opacity="0.10" stroke="#FFB23E" stroke-width="2"/><text x="700" y="2030" font-size="11.5" fill="#EAF0FA" font-weight="600" text-anchor="middle" font-family="DM Sans, Segoe UI, sans-serif">¿ICM?</text>
<text x="700" y="2046" font-size="11.5" fill="#EAF0FA" font-weight="600" text-anchor="middle" font-family="DM Sans, Segoe UI, sans-serif">&lt;40 · 40-69 · ≥70</text>
<polyline points="575,2034 230,2034 230,2062" fill="none" stroke="#8A95AC" stroke-width="2" marker-end="url(#arrow)"/>
<rect x="70.0" y="2064.0" width="320" height="56" rx="10" fill="#161B27" stroke="#4DA3FF" stroke-width="2"/><text x="230" y="2088" font-size="12.5" fill="#EAF0FA" font-weight="600" text-anchor="middle" font-family="DM Sans, Segoe UI, sans-serif">El gemelo cambia de expresión y color:</text>
<text x="230" y="2104" font-size="12.5" fill="#EAF0FA" font-weight="600" text-anchor="middle" font-family="DM Sans, Segoe UI, sans-serif">feliz (verde) · regular (ámbar) · fatigado (rojo)</text>
<polyline points="825,2034 1250,2034 1250,1985" fill="none" stroke="#FF5E6C" stroke-width="2" marker-end="url(#arrowR)" stroke-dasharray="5 4"/><text x="1080" y="2026" font-size="11.5" fill="#FF5E6C" font-weight="800" text-anchor="middle" font-family="DM Sans, sans-serif">≥70 ó pico &gt;160 → ALERTA push</text>
<polyline points="230,2120 230,2178" fill="none" stroke="#8A95AC" stroke-width="2" marker-end="url(#arrow)"/>
<rect x="70.0" y="2180.0" width="320" height="60" rx="10" fill="#161B27" stroke="#4DA3FF" stroke-width="2"/><text x="230" y="2206" font-size="12.5" fill="#EAF0FA" font-weight="600" text-anchor="middle" font-family="DM Sans, Segoe UI, sans-serif">Simulador what-if: caminar (0-60 min),</text>
<text x="230" y="2222" font-size="12.5" fill="#EAF0FA" font-weight="600" text-anchor="middle" font-family="DM Sans, Segoe UI, sans-serif">dormir (4-9 h), carbos cena (20-80 %)</text>
<polyline points="390,2210 1060,2210" fill="none" stroke="#8A95AC" stroke-width="2" marker-end="url(#arrow)"/>
<rect x="1070.0" y="2180.0" width="360" height="60" rx="10" fill="#161B27" stroke="#4DA3FF" stroke-width="2"/><text x="1250" y="2206" font-size="12.5" fill="#EAF0FA" font-weight="600" text-anchor="middle" font-family="DM Sans, Segoe UI, sans-serif">Modelo fisiológico projectICM()</text>
<text x="1250" y="2222" font-size="12.5" fill="#EAF0FA" font-weight="600" text-anchor="middle" font-family="DM Sans, Segoe UI, sans-serif">(Reynolds 2016 · Spiegel 1999 · Hall 2019)</text>
<line x1="1250" y1="2240" x2="1250" y2="2278" stroke="#8A95AC" stroke-width="2" marker-end="url(#arrow)"/>
<rect x="1070.0" y="2282.0" width="360" height="56" rx="10" fill="#161B27" stroke="#4DA3FF" stroke-width="2"/><text x="1250" y="2306" font-size="12.5" fill="#EAF0FA" font-weight="600" text-anchor="middle" font-family="DM Sans, Segoe UI, sans-serif">Motor de recomendaciones: ataca el</text>
<text x="1250" y="2322" font-size="12.5" fill="#EAF0FA" font-weight="600" text-anchor="middle" font-family="DM Sans, Segoe UI, sans-serif">peor sub-índice, español peruano</text>
<polyline points="1070,2310 700,2310 700,2338" fill="none" stroke="#8A95AC" stroke-width="2" marker-end="url(#arrow)"/>
<rect x="540.0" y="2340.0" width="320" height="56" rx="10" fill="#161B27" stroke="#4DA3FF" stroke-width="2"/><text x="700" y="2364" font-size="12.5" fill="#EAF0FA" font-weight="600" text-anchor="middle" font-family="DM Sans, Segoe UI, sans-serif">Proyección a 5 años: riesgo 23 % → 48 %</text>
<text x="700" y="2380" font-size="12.5" fill="#EAF0FA" font-weight="600" text-anchor="middle" font-family="DM Sans, Segoe UI, sans-serif">sin cambios · 23 % → 11 % con plan</text>
<polyline points="700,2396 700,2456" fill="none" stroke="#8A95AC" stroke-width="2" marker-end="url(#arrow)"/>
<polygon points="528.0,2460.0 890.0,2460.0 872.0,2524.0 510.0,2524.0" fill="#161B27" stroke="#1FD0A3" stroke-width="2"/><text x="700" y="2488" font-size="12.5" fill="#EAF0FA" font-weight="600" text-anchor="middle" font-family="DM Sans, Segoe UI, sans-serif">REPORTE MÉDICO: 5 criterios NCEP-ATP III,</text>
<text x="700" y="2504" font-size="12.5" fill="#EAF0FA" font-weight="600" text-anchor="middle" font-family="DM Sans, Segoe UI, sans-serif">TyG, HbA1c, HRV, curva de glucosa, riesgo 5a</text>
<polyline points="510,2492 230,2492 230,2520" fill="none" stroke="#8A95AC" stroke-width="2" marker-end="url(#arrow)"/>
<rect x="80.0" y="2524.0" width="300" height="52" rx="10" fill="#161B27" stroke="#4DA3FF" stroke-width="2"/><text x="230" y="2546" font-size="12.5" fill="#EAF0FA" font-weight="600" text-anchor="middle" font-family="DM Sans, Segoe UI, sans-serif">Descarga / comparte el reporte</text>
<text x="230" y="2562" font-size="12.5" fill="#EAF0FA" font-weight="600" text-anchor="middle" font-family="DM Sans, Segoe UI, sans-serif">→ lo lleva a su cita médica</text>
<polyline points="230,2576 230,2602" fill="none" stroke="#8A95AC" stroke-width="2" marker-end="url(#arrow)"/>
<rect x="70.0" y="2602.0" width="320" height="46" rx="23.0" fill="#FFB23E" fill-opacity="0.13" stroke="#FFB23E" stroke-width="2"/><text x="230" y="2629" font-size="12.5" fill="#FFB23E" font-weight="800" text-anchor="middle" font-family="DM Sans, Segoe UI, sans-serif">FIN DEL CICLO · se repite a diario</text>
<polyline points="390,2625 1480,2625 1480,1500 865,1500" fill="none" stroke="#8A95AC" stroke-width="2" marker-end="url(#arrow)" stroke-dasharray="7 5"/><text x="1180" y="2615" font-size="11.5" fill="#8A95AC" font-weight="800" text-anchor="middle" font-family="DM Sans, sans-serif">LOOP DIARIO: cada comida / registro actualiza el gemelo</text>
<rect x="1150" y="136" width="360" height="150" rx="12" fill="#161B27" stroke="#3A4358"/>
<text x="1330" y="156" font-size="12" fill="#8A95AC" font-weight="800" text-anchor="middle" font-family="DM Sans, Segoe UI, sans-serif">LEYENDA</text>
<rect x="1180" y="170" width="48" height="20" rx="10" fill="#1FD0A3" fill-opacity="0.13" stroke="#1FD0A3" stroke-width="1.6"/>
<text x="1242" y="184" font-size="11.5" fill="#EAF0FA" font-weight="600" text-anchor="start" font-family="DM Sans, Segoe UI, sans-serif">Inicio / fin</text>
<rect x="1180" y="198" width="48" height="20" rx="5" fill="#161B27" stroke="#4DA3FF" stroke-width="1.6"/>
<text x="1242" y="212" font-size="11.5" fill="#EAF0FA" font-weight="600" text-anchor="start" font-family="DM Sans, Segoe UI, sans-serif">Proceso</text>
<polygon points="1204,224 1228,236 1204,248 1180,236" fill="#FFB23E" fill-opacity="0.10" stroke="#FFB23E" stroke-width="1.6"/>
<text x="1242" y="240" font-size="11.5" fill="#EAF0FA" font-weight="600" text-anchor="start" font-family="DM Sans, Segoe UI, sans-serif">Decisión</text>
<polygon points="1188,252 1228,252 1220,272 1180,272" fill="#161B27" stroke="#1FD0A3" stroke-width="1.6"/>
<text x="1242" y="266" font-size="11.5" fill="#EAF0FA" font-weight="600" text-anchor="start" font-family="DM Sans, Segoe UI, sans-serif">Entrada / salida de datos</text>
<text x="1365" y="184" font-size="11.5" fill="#8A95AC" font-weight="600" text-anchor="start" font-family="DM Sans, Segoe UI, sans-serif">─ ─ flujo asíncrono / alerta</text>
<text x="1365" y="212" font-size="11.5" fill="#8A95AC" font-weight="600" text-anchor="start" font-family="DM Sans, Segoe UI, sans-serif">Doble borde = subproceso</text>
</svg>